<svg width="23" height="20" viewBox="0 0 23 20" fill="none" xmlns="http://www.w3.org/2000/svg">
<path d="M13.209 1.10198C12.714 0.0989814 11.283 0.0989814 10.788 1.10198L8.42998 5.87998L3.15698 6.64598C2.04998 6.80598 1.60697 8.16798 2.40897 8.94898L6.22398 12.668L5.32398 17.918C5.13398 19.022 6.29198 19.863 7.28298 19.342L11.998 16.862L16.714 19.342C17.704 19.862 18.862 19.022 18.674 17.919L17.772 12.668L21.588 8.94798C22.388 8.16798 21.947 6.80698 20.84 6.64598L15.567 5.87998L13.209 1.10198ZM9.73997 6.61398L11.998 2.03898L14.257 6.61398C14.3537 6.81029 14.4968 6.98013 14.6738 7.10887C14.8508 7.23761 15.0564 7.32139 15.273 7.35298L20.323 8.08698L16.669 11.649C16.5123 11.8018 16.3951 11.9904 16.3275 12.1986C16.2599 12.4068 16.2439 12.6283 16.281 12.844L17.143 17.873L12.627 15.498C12.4332 15.396 12.2175 15.3428 11.9985 15.3428C11.7795 15.3428 11.5638 15.396 11.37 15.498L6.85398 17.873L7.71598 12.843C7.75285 12.6274 7.7368 12.4061 7.66922 12.1981C7.60163 11.9901 7.48452 11.8017 7.32798 11.649L3.67397 8.08698L8.72398 7.35298C9.16397 7.28898 9.54397 7.01298 9.73997 6.61398ZM1.16398 1.78098C1.03987 1.9364 0.982578 2.13476 1.00471 2.33242C1.02684 2.53008 1.12657 2.71085 1.28197 2.83498L3.78198 4.83498C3.85862 4.8987 3.9472 4.94651 4.04253 4.9756C4.13787 5.00469 4.23804 5.01449 4.33721 5.00443C4.43637 4.99436 4.53253 4.96462 4.62007 4.91696C4.70761 4.8693 4.78478 4.80467 4.84705 4.72684C4.90932 4.64902 4.95546 4.55956 4.98276 4.4637C5.01007 4.36784 5.01799 4.26749 5.00606 4.16854C4.99414 4.06958 4.96261 3.97399 4.91331 3.88736C4.86402 3.80072 4.79795 3.72479 4.71897 3.66398L2.21898 1.66398C2.14205 1.60232 2.05372 1.55643 1.95905 1.52893C1.86437 1.50144 1.7652 1.49288 1.66722 1.50375C1.56923 1.51462 1.47435 1.54469 1.388 1.59226C1.30164 1.63983 1.22552 1.70396 1.16398 1.78098ZM22.836 16.218C22.9602 16.0627 23.0177 15.8644 22.9957 15.6668C22.9738 15.4691 22.8742 15.2883 22.719 15.164L20.219 13.164C20.1421 13.1024 20.0538 13.0565 19.9592 13.0291C19.8646 13.0016 19.7655 12.993 19.6676 13.0038C19.4698 13.0257 19.2889 13.1252 19.1645 13.2805C19.1029 13.3574 19.057 13.4456 19.0296 13.5402C19.0021 13.6348 18.9935 13.7339 19.0043 13.8319C19.0262 14.0296 19.1257 14.2106 19.281 14.335L21.781 16.335C21.8579 16.3966 21.9462 16.4425 22.0409 16.47C22.1356 16.4975 22.2347 16.5061 22.3327 16.4952C22.4307 16.4843 22.5256 16.4543 22.612 16.4067C22.6983 16.3591 22.7744 16.295 22.836 16.218ZM1.28197 15.164C1.203 15.2248 1.13693 15.3007 1.08764 15.3874C1.03834 15.474 1.00681 15.5696 0.994889 15.6685C0.982964 15.7675 0.990884 15.8678 1.01819 15.9637C1.04549 16.0596 1.09163 16.149 1.1539 16.2268C1.21617 16.3047 1.29334 16.3693 1.38088 16.417C1.46842 16.4646 1.56458 16.4944 1.66374 16.5044C1.76291 16.5145 1.86308 16.5047 1.95842 16.4756C2.05375 16.4465 2.14233 16.3987 2.21898 16.335L4.71897 14.335C4.87006 14.2094 4.96582 14.0295 4.98567 13.834C5.00551 13.6385 4.94786 13.4431 4.8251 13.2897C4.70235 13.1363 4.5243 13.0372 4.32923 13.0136C4.13416 12.9901 3.93766 13.0441 3.78198 13.164L1.28197 15.164ZM22.836 1.77998C22.9602 1.93528 23.0177 2.13355 22.9957 2.33121C22.9738 2.52886 22.8742 2.70971 22.719 2.83398L20.219 4.83398C20.1421 4.89557 20.0538 4.94141 19.9592 4.96889C19.8646 4.99637 19.7655 5.00494 19.6676 4.99413C19.5697 4.98331 19.4748 4.95331 19.3885 4.90584C19.3022 4.85838 19.2261 4.79437 19.1645 4.71748C19.1029 4.64059 19.057 4.55233 19.0296 4.45772C19.0021 4.36311 18.9935 4.26402 19.0043 4.1661C19.0152 4.06818 19.0451 3.97335 19.0926 3.88703C19.1401 3.8007 19.2041 3.72457 19.281 3.66298L21.781 1.66298C21.8579 1.60132 21.9462 1.55543 22.0409 1.52793C22.1356 1.50044 22.2347 1.49188 22.3327 1.50275C22.4307 1.51362 22.5256 1.54369 22.612 1.59126C22.6983 1.63883 22.7744 1.70296 22.836 1.77998Z" fill="#14B866"/>
</svg>
