<svg width="18" height="18" viewBox="0 0 18 18" fill="none" xmlns="http://www.w3.org/2000/svg">
<path d="M17.026 9.19192C16.8776 9.42942 16.6811 9.63314 16.449 9.78992L10.399 13.8739C9.98583 14.1529 9.49863 14.302 9.00004 14.302C8.50145 14.302 8.01425 14.1529 7.60104 13.8739L1.55104 9.78992C1.18895 9.54565 0.916778 9.18955 0.776111 8.77604C0.635444 8.36252 0.634014 7.91433 0.772041 7.49992L7.61304 12.0599C7.9971 12.3159 8.44451 12.4605 8.90571 12.4778C9.36691 12.4951 9.82389 12.3844 10.226 12.1579L10.386 12.0599L17.227 7.49992C17.3205 7.77931 17.3509 8.07591 17.3162 8.36845C17.2814 8.66099 17.1823 8.94221 17.026 9.19192ZM17.227 10.7499C17.3659 11.1642 17.3649 11.6125 17.2244 12.0262C17.0838 12.4398 16.8115 12.796 16.449 13.0399L10.399 17.1239C9.98583 17.4029 9.49863 17.552 9.00004 17.552C8.50145 17.552 8.01425 17.4029 7.60104 17.1239L1.55104 13.0399C1.18895 12.7956 0.916778 12.4396 0.776111 12.026C0.635444 11.6125 0.634014 11.1643 0.772041 10.7499L7.61304 15.3099C7.9971 15.5659 8.44451 15.7105 8.90571 15.7278C9.36691 15.7451 9.82389 15.6344 10.226 15.4079L10.386 15.3099L17.227 10.7499ZM10.387 0.424923L16.752 4.66792C16.889 4.75925 17.0013 4.88297 17.079 5.02811C17.1566 5.17324 17.1973 5.33531 17.1973 5.49992C17.1973 5.66454 17.1566 5.8266 17.079 5.97174C17.0013 6.11688 16.889 6.2406 16.752 6.33192L10.387 10.5759C9.97632 10.8498 9.49371 10.996 9.00004 10.996C8.50638 10.996 8.02376 10.8498 7.61304 10.5759L1.24804 6.33192C1.11108 6.2406 0.998788 6.11688 0.921121 5.97174C0.843454 5.8266 0.802817 5.66454 0.802817 5.49992C0.802817 5.33531 0.843454 5.17324 0.921121 5.02811C0.998788 4.88297 1.11108 4.75925 1.24804 4.66792L7.61304 0.424923C8.02376 0.151038 8.50638 0.00488281 9.00004 0.00488281C9.49371 0.00488281 9.97632 0.151038 10.387 0.424923ZM8.56004 1.60592L8.44404 1.67292L2.70504 5.49992L8.44504 9.32792C8.5905 9.42484 8.75883 9.48193 8.93324 9.49351C9.10765 9.50509 9.28204 9.47075 9.43904 9.39392L9.55504 9.32792L15.294 5.49992L9.55404 1.67292C9.40878 1.57603 9.24068 1.51887 9.06647 1.50711C8.89226 1.49536 8.718 1.52943 8.56104 1.60592H8.56004Z" fill="#E55006"/>
</svg>
