<svg width="20" height="21" viewBox="0 0 20 21" fill="none" xmlns="http://www.w3.org/2000/svg">
<path d="M17 5.5C17.0005 6.00715 16.9308 6.51194 16.793 7H18.413C19.29 7 20 7.71 20 8.586V13.5C20 14.7216 19.6558 15.9185 19.0067 16.9534C18.3577 17.9884 17.4301 18.8195 16.3304 19.3514C15.2307 19.8834 14.0034 20.0947 12.7891 19.961C11.5748 19.8274 10.4227 19.3543 9.465 18.596L8.28 19.78C8.21134 19.8537 8.12854 19.9128 8.03654 19.9538C7.94454 19.9948 7.84522 20.0168 7.74452 20.0186C7.64382 20.0204 7.54379 20.0018 7.4504 19.9641C7.35701 19.9264 7.27218 19.8703 7.20096 19.799C7.12974 19.7278 7.0736 19.643 7.03588 19.5496C6.99816 19.4562 6.97963 19.3562 6.98141 19.2555C6.98318 19.1548 7.00523 19.0555 7.04622 18.9635C7.08721 18.8715 7.14631 18.7887 7.22 18.72L8.404 17.535C8.00616 17.0334 7.68468 16.4757 7.45 15.88C6.57816 16.058 5.67764 16.0398 4.81369 15.8268C3.94974 15.6138 3.14399 15.2113 2.45479 14.6484C1.7656 14.0856 1.21022 13.3765 0.828887 12.5725C0.447555 11.7685 0.249819 10.8898 0.25 10V5.514C0.25 4.678 0.928 4 1.764 4H6.207C6.53386 2.84815 7.22754 1.83436 8.18278 1.11247C9.13802 0.390583 10.3027 3.10412e-06 11.5 0H15.56C16.355 0 17 0.645 17 1.44V5.5ZM7.722 4.182C8.55203 4.3927 9.32747 4.77827 9.99644 5.31289C10.6654 5.84751 11.2125 6.51886 11.601 7.282C12.2165 7.09451 12.8565 6.99947 13.5 7H15.21C15.4021 6.52328 15.5006 6.01399 15.5 5.5V1.5H11.5C10.6699 1.50001 9.86031 1.75815 9.18342 2.23868C8.50652 2.71921 7.9958 3.39834 7.722 4.182ZM10.535 17.526C11.2797 18.0744 12.1619 18.4056 13.0836 18.4826C14.0052 18.5596 14.9301 18.3795 15.7555 17.9623C16.5809 17.5451 17.2745 16.9072 17.759 16.1194C18.2435 15.3316 18.5 14.4249 18.5 13.5V8.586C18.5 8.57471 18.4978 8.56352 18.4935 8.55309C18.4891 8.54265 18.4828 8.53317 18.4748 8.52519C18.4668 8.5172 18.4573 8.51087 18.4469 8.50655C18.4365 8.50222 18.4253 8.5 18.414 8.5H13.5C12.5751 8.5 11.6684 8.75652 10.8806 9.24103C10.0928 9.72554 9.45488 10.4191 9.03767 11.2445C8.62046 12.0699 8.44035 12.9948 8.51739 13.9164C8.59442 14.8381 8.92556 15.7203 9.474 16.465L13.72 12.22C13.7887 12.1463 13.8715 12.0872 13.9635 12.0462C14.0555 12.0052 14.1548 11.9832 14.2555 11.9814C14.3562 11.9796 14.4562 11.9982 14.5496 12.0359C14.643 12.0736 14.7278 12.1297 14.799 12.201C14.8703 12.2722 14.9264 12.357 14.9641 12.4504C15.0018 12.5438 15.0204 12.6438 15.0186 12.7445C15.0168 12.8452 14.9948 12.9445 14.9538 13.0365C14.9128 13.1285 14.8537 13.2113 14.78 13.28L10.535 17.526ZM7 13.5C7 12.908 7.08 12.334 7.228 11.789L4.47 9.03C4.39631 8.96134 4.33721 8.87854 4.29622 8.78654C4.25523 8.69454 4.23319 8.59523 4.23141 8.49452C4.22963 8.39382 4.24816 8.29379 4.28588 8.2004C4.3236 8.10701 4.37974 8.02218 4.45096 7.95096C4.52218 7.87974 4.60701 7.8236 4.7004 7.78588C4.79379 7.74816 4.89382 7.72963 4.99452 7.73141C5.09523 7.73318 5.19454 7.75523 5.28654 7.79622C5.37854 7.83721 5.46134 7.89631 5.53 7.97L7.848 10.287C8.41537 9.29194 9.23442 8.46358 10.223 7.885C9.83935 7.1645 9.26695 6.56192 8.56709 6.1418C7.86723 5.72167 7.06628 5.49982 6.25 5.5H1.759L1.754 5.504C1.75278 5.50553 1.75177 5.50721 1.751 5.509L1.75 5.514V10C1.74991 10.6601 1.89506 11.3122 2.17514 11.9099C2.45523 12.5077 2.8634 13.0365 3.37071 13.4589C3.87801 13.8813 4.47203 14.1868 5.11065 14.354C5.74926 14.5211 6.41682 14.5457 7.066 14.426C7.02215 14.1193 7.00009 13.8098 7 13.5Z" fill="#0080FF"/>
</svg>
