<svg width="20" height="16" viewBox="0 0 20 16" fill="none" xmlns="http://www.w3.org/2000/svg">
<path d="M5 2.25299V2.99999H2.25C1.65326 2.99999 1.08097 3.23704 0.65901 3.659C0.237053 4.08096 0 4.65325 0 5.24999V13.747C0 14.3437 0.237053 14.916 0.65901 15.338C1.08097 15.7599 1.65326 15.997 2.25 15.997H17.75C18.3467 15.997 18.919 15.7599 19.341 15.338C19.7629 14.916 20 14.3437 20 13.747V5.24999C20 4.65325 19.7629 4.08096 19.341 3.659C18.919 3.23704 18.3467 2.99999 17.75 2.99999H15V2.25299C15 1.65625 14.7629 1.08396 14.341 0.662001C13.919 0.240044 13.3467 0.00299072 12.75 0.00299072H7.25C6.65326 0.00299072 6.08097 0.240044 5.65901 0.662001C5.23705 1.08396 5 1.65625 5 2.25299ZM7.25 1.50299H12.75C12.9489 1.50299 13.1397 1.58201 13.2803 1.72266C13.421 1.86331 13.5 2.05408 13.5 2.25299V2.99999H6.5V2.25299C6.5 2.05408 6.57902 1.86331 6.71967 1.72266C6.86032 1.58201 7.05109 1.50299 7.25 1.50299ZM5 4.50299H6.5V4.49999H13.5V4.50299H15V4.49999H17.75C17.9489 4.49999 18.1397 4.57901 18.2803 4.71966C18.421 4.86031 18.5 5.05108 18.5 5.24999V7.49999H15.5V6.74999C15.5 6.55108 15.421 6.36031 15.2803 6.21966C15.1397 6.07901 14.9489 5.99999 14.75 5.99999C14.5511 5.99999 14.3603 6.07901 14.2197 6.21966C14.079 6.36031 14 6.55108 14 6.74999V7.49999H6V6.74999C6 6.55108 5.92098 6.36031 5.78033 6.21966C5.63968 6.07901 5.44891 5.99999 5.25 5.99999C5.05109 5.99999 4.86032 6.07901 4.71967 6.21966C4.57902 6.36031 4.5 6.55108 4.5 6.74999V7.49999H1.5V5.24999C1.5 5.05108 1.57902 4.86031 1.71967 4.71966C1.86032 4.57901 2.05109 4.49999 2.25 4.49999H5V4.50299ZM14 8.99999V10.25C14 10.4489 14.079 10.6397 14.2197 10.7803C14.3603 10.921 14.5511 11 14.75 11C14.9489 11 15.1397 10.921 15.2803 10.7803C15.421 10.6397 15.5 10.4489 15.5 10.25V8.99999H18.5V13.747C18.5 13.9459 18.421 14.1367 18.2803 14.2773C18.1397 14.418 17.9489 14.497 17.75 14.497H2.25C2.05109 14.497 1.86032 14.418 1.71967 14.2773C1.57902 14.1367 1.5 13.9459 1.5 13.747V8.99999H4.5V10.25C4.5 10.4489 4.57902 10.6397 4.71967 10.7803C4.86032 10.921 5.05109 11 5.25 11C5.44891 11 5.63968 10.921 5.78033 10.7803C5.92098 10.6397 6 10.4489 6 10.25V8.99999H14Z" fill="#0080FF"/>
</svg>
